<svg version="1" xmlns="http://www.w3.org/2000/svg" viewBox="0 0 100 95.2"><path fill-rule="evenodd" clip-rule="evenodd" d="M75.8 91.8C64 93.6 66 87.3 65.8 80l-.6-14-3 13.6c-.5 2.6-1.2 5 2.5 6.8 2.6 2.3-.4 5.5-3.2 5-8.5.4-7.2-5.3-6.5-9.3l.5-5.7c.3-4 1-6.4 1.3-12l-1.2-3c-9.2-2.3-15.5-4-22.6-8l-5.2.8c-2.3.5-1.7 3.2-2 5l-.7 4.8-4 11-.4 1c-.3.6-.2 3.6 1 5.2l2 4.6c2 2.5 2.3 9-2.4 7L17.6 91c-2.5-1-4.5-8-5.4-13v-7.3c-2-.7-3 12.2-2 15l2 6.5c.7 2.2-1.8 3-3.5 3-4.2 0-6-4.3-7-7.8l-.6-2.7C0 80.7.7 74.5 2.8 71l1-2.4c2-4.4-.4-7.6-1-10-1.7-7-3.2-14 1.8-21l.3-.5c0-.4-1.5-1.6-2.4-4.3-2-6-3.6-16.2-1.2-16.2h1.5c4 0 3 16.5 7.7 15.4l34.5.3 6-1.7c2.2-.6 4-2 6-3.2l4-2.5c4.6 4.5 8.6 7.3 15 9.7 2 13.5 0 16.5-1.8 24.6l-.7 3.3c-1.2 5.7-1.6 11.7-1.3 17.7V83c0 3 1.6 3 4 3.8 1.3.7 2.3 3.6-.4 5zM83 9c2 1.4 4.3 3.7 6.3 5.7l2.3 2.6c1.6 1.6 4 1.4 6 1.8l.8.3c2.4 1.2 1.6 3.7 1 5.5l-.6 1c-2.2 5.4-8.7 5.8-13.2 3.3l-2-1h-.8l-1.4 1-3 2.3c-5.8-2.6-10.7-5.7-14.5-9.8l8.8-11.2 3-4.4.6-1.5L77 3C77.7 1 80-.6 81.6 0c1.6.6 2.6 3.6 2.2 5.2l-.4 1.8-.2 2z"/></svg>