<svg xmlns="http://www.w3.org/2000/svg" viewBox="0 0 78.35 70.35"><path d="M78.1 64.77c-2.34-.48-4.13-2.25-5.15-4.5-.6-1.28-.8-2.63-1.28-3.94-.5-1.35-1.28-2.6-2.28-3.63-1.28-1.32-3.52-2.35-3.33-4.52.03-.28-.43-6.85-.6-8.36-.4-5.37-4.7-9.8-9.7-11.43-.6-.2-1.2-.36-1.83-.5-.8-.15-1.6-.26-2.43-.35-2.33-.24-4.7-.24-7.03-.5l-.76-.08c-1.15-.14-2.43-.32-3.7-.58l-1.38-.33c-3.65-.92-7.18-2.6-8.68-5.9-1.6-3.55-2.26-7.46-4.63-10.66-2.1-2.82-5.75-4.8-9.13-5.76l-.76-.2c-1-.2-2-.23-3.03-.04h-.07c-.56-.12-1.76-2.27-2.27-3.06C9.85.17 9.7.04 9.6 0c-.54-.1-.52 1.93-.63 2.5-.15.8-.3 1.85-.75 2.6C6.9 6.27 6.94 8.25 7.05 9.87c.05.9.32 1.74.34 2.65.03 2.4-1.54 5.27-.5 7.58.37.78 1.08 1.3 1.87 1.47.62.13 1.3.02 1.86-.4 1.06-.8 1.68-2.24 1.95-3.52.16-.77.3-2.04 1.33-2.06h.23c2.52.52.7 11.16.54 12.77-.38 3.64.03 5.63.5 6.8.15.37-.17.76-.57.7-1.45-.24-3.14.38-4.5.55-1.97.24-4.08-.24-5.73 1.16-2 1.7-2.76 4.7-3.5 7.1C.12 47.2-.5 50.18.6 52.72c.88 2 2.55 3.45 4.3 4.7l.96-4.56c-.18-.02-.36-.04-.55-.08-.52-.1-1.02-.3-1.43-.62-1.8-1.43-.8-5.5-.26-7.38.7-2.32 2.23-4.13 4.84-3.7l.26.07c1.63.33 3.14 1.14 4.6 1.88.8.4 1.6.67 2.38.83 1.45.3 2.9.2 4.47-.32.1-.03.4-.13.68-.24.26-.1.53-.1.8-.05.13.03.27.08.4.15 2.3 1.23 4.86 2.16 7.5 2.7 1.62.33 3.27.5 4.9.53 1.25.02 2.5-.07 3.72-.25.57-.1 1.12-.2 1.67-.33 1.97-.46 3.87-1.12 5.85-1.5 1.54-.3 3.2-.4 4.76-.1 1.1.23 2.13.66 3 1.4 1.72 1.36 2.4 3.57 4.25 4.82 1.24.85 2.7 1.33 4.02 2.04 2 1.02 3.74 2.48 5.1 4.24 1.36 1.72 2 3.7 2.94 5.66.7 1.45 1.65 2.8 2.76 3.98 1.6 1.68 3.56 2.66 5.5 3.77l.35-5.55-.24-.03z"/></svg>