<?xml version="1.0" encoding="UTF-8" standalone="no"?>
<svg width="253px" height="67px" viewBox="0 0 253 67" version="1.1" xmlns="http://www.w3.org/2000/svg" xmlns:xlink="http://www.w3.org/1999/xlink">
    <!-- Generator: Sketch 40.3 (33839) - http://www.bohemiancoding.com/sketch -->
    <title>Logo-standard-RGB-Large</title>
    <desc>Created with Sketch.</desc>
    <defs></defs>
    <g id="Logo" stroke="none" stroke-width="1" fill="none" fill-rule="evenodd">
        <g id="Logo-standard-RGB-Large">
            <g id="Group-Copy-12" transform="translate(0.220700, 0.285714)">
                <polygon id="Fill-1" fill="#99D6F0" points="0.770614463 20.4161023 252.142569 20.4161023 252.142569 0.349975586 0.770614463 0.349975586"></polygon>
                <polygon id="Fill-2" fill="#3F9C35" points="0.770614463 30.2073992 252.142569 30.2073992 252.142569 26.8597932 0.770614463 26.8597932"></polygon>
                <polygon id="Fill-3" fill="#003591" points="0.770614463 40.2280476 252.142569 40.2280476 252.142569 33.5425902 0.770614463 33.5425902"></polygon>
                <polyline id="Fill-4" fill="#0F1F4B" points="153.069394 50.2602241 153.069394 66.9840655 156.276002 66.9840655 156.276002 54.9114012 169.458032 66.9840655 172.13789 66.9840655 172.13789 50.2602241 168.923302 50.2602241 168.923302 62.3355488 155.747479 50.2602241 153.069394 50.2602241"></polyline>
                <polyline id="Fill-5" fill="#0F1F4B" points="252.142569 66.9840655 252.142569 64.0301912 239.93334 64.0301912 239.93334 50.2602241 236.717865 50.2602241 236.717865 66.9840655 252.142569 66.9840655"></polyline>
                <polyline id="Fill-6" fill="#0F1F4B" points="185.990328 66.9840655 188.438736 66.9840655 197.616054 50.2602241 194.004186 50.2602241 187.25222 62.9908815 180.508235 50.2602241 176.831633 50.2602241 185.990328 66.9840655"></polyline>
                <path d="M218.905941,50.2602241 C215.958274,50.2602241 213.577262,50.6637104 212.08924,52.0524126 C210.893856,53.1440426 210.272221,54.7038939 210.272221,56.8241922 L210.272221,60.4147767 C210.272221,62.5377353 210.893856,64.0949263 212.08924,65.1909902 C213.577262,66.5788056 215.958274,66.9840655 218.905941,66.9840655 L229.706072,66.9840655 L229.706072,57.3305453 L219.567481,57.3305453 L219.567481,60.3402869 L226.49237,60.3402869 L226.49237,64.0301912 L218.051082,64.0301912 C216.452212,64.0301912 215.198301,63.757062 214.373593,62.9651648 C213.71294,62.3045114 213.478829,61.3760495 213.478829,60.1496286 L213.478829,57.0973214 C213.478829,55.8664665 213.71294,54.9371179 214.373593,54.2755777 C215.198301,53.4819069 216.452212,53.2167588 218.051082,53.2167588 L229.706072,53.2167588 L229.706072,50.2602241 L218.905941,50.2602241" id="Fill-7" fill="#0F1F4B"></path>
                <path d="M146.04962,56.8241922 C146.04962,54.7038939 145.419117,53.1440426 144.231715,52.0524126 C142.741032,50.6637104 140.354699,50.2602241 137.414127,50.2602241 L126.455262,50.2602241 L126.455262,66.9840655 L137.414127,66.9840655 C140.354699,66.9840655 142.741032,66.5788056 144.231715,65.1909902 C145.419117,64.0949263 146.04962,62.5377353 146.04962,60.4147767 L146.04962,56.8241922 L146.04962,56.8241922 Z M129.661869,53.2167588 L138.273419,53.2167588 C139.861648,53.2167588 141.121766,53.4819069 141.946475,54.2755777 C142.610675,54.9051937 142.844786,55.8336555 142.844786,57.127472 L142.844786,60.1150441 C142.844786,61.4053134 142.610675,62.3355488 141.946475,62.9651648 C141.121766,63.757062 139.861648,64.0301912 138.273419,64.0301912 L129.661869,64.0301912 L129.661869,53.2167588 L129.661869,53.2167588 Z" id="Fill-8" fill="#0F1F4B"></path>
                <polygon id="Fill-9" fill="#0F1F4B" points="200.187725 60.5708505 203.958326 60.5708505 203.958326 56.7940416 200.187725 56.7940416"></polygon>
            </g>
        </g>
    </g>
</svg>