<?xml version="1.0" standalone="no"?><!DOCTYPE svg PUBLIC "-//W3C//DTD SVG 1.1//EN" "http://www.w3.org/Graphics/SVG/1.1/DTD/svg11.dtd"><svg t="1548211270825" class="icon" style="" viewBox="0 0 1024 1024" version="1.1" xmlns="http://www.w3.org/2000/svg" p-id="755" xmlns:xlink="http://www.w3.org/1999/xlink" width="200" height="200"><defs><style type="text/css"></style></defs><path d="M919.04 168.96 104.96 168.96C48.64 168.96 0 217.6 0 273.92l0 473.6c0 58.88 48.64 104.96 104.96 104.96l811.52 0c58.88 0 104.96-48.64 104.96-104.96L1021.44 273.92C1024 217.6 975.36 168.96 919.04 168.96zM691.2 527.36 972.8 281.6l0 468.48c0 10.24-2.56 17.92-7.68 25.6L691.2 527.36zM919.04 220.16c12.8 0 25.6 5.12 35.84 12.8 0 0 0 0 0 0L565.76 576c-15.36 12.8-33.28 20.48-53.76 20.48s-40.96-7.68-53.76-20.48L71.68 232.96c0 0 0 0 0 0 10.24-7.68 20.48-12.8 35.84-12.8L919.04 220.16zM56.32 770.56C53.76 765.44 51.2 757.76 51.2 750.08L51.2 279.04l279.04 245.76L56.32 770.56zM104.96 803.84c-2.56 0-5.12 0-7.68 0l271.36-243.2 53.76 48.64c25.6 23.04 58.88 33.28 89.6 33.28s66.56-10.24 89.6-33.28l51.2-43.52L921.6 803.84c0 0-2.56 0-2.56 0L104.96 803.84z" p-id="756"></path></svg>