<?xml version="1.0" encoding="UTF-8" standalone="no"?>
<svg width="5002px" height="67px" viewBox="0 0 5002 67" version="1.1" xmlns="http://www.w3.org/2000/svg" xmlns:xlink="http://www.w3.org/1999/xlink">
    <!-- Generator: Sketch 40.3 (33839) - http://www.bohemiancoding.com/sketch -->
    <title>Artboard Copy 3</title>
    <desc>Created with Sketch.</desc>
    <defs></defs>
    <g id="Use-of-Logo-and-colours" stroke="none" stroke-width="1" fill="none" fill-rule="evenodd">
        <g id="Artboard-Copy-3">
            <g id="Group-Copy-3">
                <polygon id="Fill-1" fill="#99D6F0" points="0.560373591 20.4161023 5001.14257 20.4161023 5001.14257 0.349975586 0.560373591 0.349975586"></polygon>
                <polygon id="Fill-2" fill="#3F9C35" points="0.560373591 30.2073992 5001.14257 30.2073992 5001.14257 26.8597932 0.560373591 26.8597932"></polygon>
                <polygon id="Fill-3" fill="#003591" points="0.560373591 40.2280476 5001.14257 40.2280476 5001.14257 33.5425902 0.560373591 33.5425902"></polygon>
                <polyline id="Fill-4" fill="#0F1F4B" points="4902.06939 50.2602241 4902.06939 66.9840655 4905.276 66.9840655 4905.276 54.9114012 4918.45803 66.9840655 4921.13789 66.9840655 4921.13789 50.2602241 4917.9233 50.2602241 4917.9233 62.3355488 4904.74748 50.2602241 4902.06939 50.2602241"></polyline>
                <polyline id="Fill-5" fill="#0F1F4B" points="5001.14257 66.9840655 5001.14257 64.0301912 4988.93334 64.0301912 4988.93334 50.2602241 4985.71787 50.2602241 4985.71787 66.9840655 5001.14257 66.9840655"></polyline>
                <polyline id="Fill-6" fill="#0F1F4B" points="4934.99033 66.9840655 4937.43874 66.9840655 4946.61605 50.2602241 4943.00419 50.2602241 4936.25222 62.9908815 4929.50824 50.2602241 4925.83163 50.2602241 4934.99033 66.9840655"></polyline>
                <path d="M4967.90594,50.2602241 C4964.95827,50.2602241 4962.57726,50.6637104 4961.08924,52.0524126 C4959.89386,53.1440426 4959.27222,54.7038939 4959.27222,56.8241922 L4959.27222,60.4147767 C4959.27222,62.5377353 4959.89386,64.0949263 4961.08924,65.1909902 C4962.57726,66.5788056 4964.95827,66.9840655 4967.90594,66.9840655 L4978.70607,66.9840655 L4978.70607,57.3305453 L4968.56748,57.3305453 L4968.56748,60.3402869 L4975.49237,60.3402869 L4975.49237,64.0301912 L4967.05108,64.0301912 C4965.45221,64.0301912 4964.1983,63.757062 4963.37359,62.9651648 C4962.71294,62.3045114 4962.47883,61.3760495 4962.47883,60.1496286 L4962.47883,57.0973214 C4962.47883,55.8664665 4962.71294,54.9371179 4963.37359,54.2755777 C4964.1983,53.4819069 4965.45221,53.2167588 4967.05108,53.2167588 L4978.70607,53.2167588 L4978.70607,50.2602241 L4967.90594,50.2602241" id="Fill-7" fill="#0F1F4B"></path>
                <path d="M4895.04962,56.8241922 C4895.04962,54.7038939 4894.41912,53.1440426 4893.23171,52.0524126 C4891.74103,50.6637104 4889.3547,50.2602241 4886.41413,50.2602241 L4875.45526,50.2602241 L4875.45526,66.9840655 L4886.41413,66.9840655 C4889.3547,66.9840655 4891.74103,66.5788056 4893.23171,65.1909902 C4894.41912,64.0949263 4895.04962,62.5377353 4895.04962,60.4147767 L4895.04962,56.8241922 L4895.04962,56.8241922 Z M4878.66187,53.2167588 L4887.27342,53.2167588 C4888.86165,53.2167588 4890.12177,53.4819069 4890.94647,54.2755777 C4891.61068,54.9051937 4891.84479,55.8336555 4891.84479,57.127472 L4891.84479,60.1150441 C4891.84479,61.4053134 4891.61068,62.3355488 4890.94647,62.9651648 C4890.12177,63.757062 4888.86165,64.0301912 4887.27342,64.0301912 L4878.66187,64.0301912 L4878.66187,53.2167588 L4878.66187,53.2167588 Z" id="Fill-8" fill="#0F1F4B"></path>
                <polygon id="Fill-9" fill="#0F1F4B" points="4949.18772 60.5708505 4952.95833 60.5708505 4952.95833 56.7940416 4949.18772 56.7940416"></polygon>
            </g>
        </g>
    </g>
</svg>